<?xml version="1.0" encoding="utf-8"?>
<!-- Generator: Adobe Illustrator 21.1.0, SVG Export Plug-In . SVG Version: 6.00 Build 0)  -->
<svg version="1.1" id="Layer_1" xmlns="http://www.w3.org/2000/svg" xmlns:xlink="http://www.w3.org/1999/xlink" x="0px" y="0px"
	 viewBox="0 0 50 150" style="enable-background:new 0 0 50 150;" xml:space="preserve">
<style type="text/css">
	.st0{fill:#FFFFFF;}
</style>
<title>nav</title>
<path class="st0" d="M25,56c10.5,0,19,8.5,19,19s-8.5,19-19,19S6,85.5,6,75S14.5,56,25,56 M25,50C11.2,50,0,61.2,0,75s11.2,25,25,25
	s25-11.2,25-25S38.8,50,25,50z"/>
<circle class="st0" cx="25" cy="75" r="13.9"/>
<circle class="st0" cx="25" cy="125" r="25"/>
<path class="st0" d="M25,6c10.5,0,19,8.5,19,19s-8.5,19-19,19S6,35.5,6,25S14.5,6,25,6 M25,0C11.2,0,0,11.2,0,25s11.2,25,25,25
	s25-11.2,25-25S38.8,0,25,0z"/>
</svg>
